<svg width="41" height="41" viewBox="0 0 41 41" fill="none" xmlns="http://www.w3.org/2000/svg">
<g filter="url(#filter0_d_667_19134)">
<circle cx="20.5" cy="14.8542" r="10" fill="#F35627"/>
</g>
<path d="M20.6667 13.6667C21.8333 11.94 20.6667 9.58333 20.0833 9C20.0833 10.7722 19.0491 11.7656 18.3333 12.5C17.6182 13.235 17.1667 14.39 17.1667 15.4167C17.1667 16.3449 17.5354 17.2352 18.1918 17.8915C18.8482 18.5479 19.7384 18.9167 20.6667 18.9167C21.5949 18.9167 22.4852 18.5479 23.1415 17.8915C23.7979 17.2352 24.1667 16.3449 24.1667 15.4167C24.1667 14.523 23.5507 13.1183 23 12.5C21.9582 14.25 21.3719 14.25 20.6667 13.6667Z" fill="#F35627" stroke="white" stroke-width="1.5" stroke-linecap="round" stroke-linejoin="round"/>
<defs>
<filter id="filter0_d_667_19134" x="0.5" y="0.854248" width="40" height="40" filterUnits="userSpaceOnUse" color-interpolation-filters="sRGB">
<feFlood flood-opacity="0" result="BackgroundImageFix"/>
<feColorMatrix in="SourceAlpha" type="matrix" values="0 0 0 0 0 0 0 0 0 0 0 0 0 0 0 0 0 0 127 0" result="hardAlpha"/>
<feOffset dy="6"/>
<feGaussianBlur stdDeviation="5"/>
<feColorMatrix type="matrix" values="0 0 0 0 0.32549 0 0 0 0 0.184314 0 0 0 0 0.666667 0 0 0 0.2 0"/>
<feBlend mode="normal" in2="BackgroundImageFix" result="effect1_dropShadow_667_19134"/>
<feBlend mode="normal" in="SourceGraphic" in2="effect1_dropShadow_667_19134" result="shape"/>
</filter>
</defs>
</svg>
