<svg width="80" height="80" viewBox="0 0 80 80" fill="none" xmlns="http://www.w3.org/2000/svg">
<circle cx="40" cy="40" r="40" fill="#F9703E"/>
<path d="M53.2196 31.3045L54.8363 29.6881C55.1048 29.4193 55.1933 29.019 55.0628 28.6622C54.9324 28.3052 54.6066 28.0564 54.2277 28.0244L51.2286 27.7714L50.9755 24.7722C50.9437 24.3936 50.6948 24.0678 50.338 23.9373C49.9812 23.8066 49.5809 23.8951 49.3121 24.1639L47.6954 25.7803C45.0811 24.1774 42.0919 23.3333 38.9999 23.3333C34.5482 23.3333 30.3627 25.067 27.2148 28.2149C24.0669 31.3628 22.3333 35.5483 22.3333 40C22.3333 44.4518 24.0669 48.6372 27.2148 51.7851C30.3627 54.933 34.5482 56.6667 38.9999 56.6667C43.4517 56.6667 47.6372 54.933 50.785 51.7851C53.9329 48.6372 55.6666 44.4518 55.6666 40C55.6666 36.9081 54.8225 33.9191 53.2196 31.3045ZM49.3515 28.7573C49.3917 29.2319 49.768 29.6083 50.2426 29.6484L51.9681 29.7939L49.6325 32.1295L47.0853 31.9146L46.8704 29.3674L49.206 27.0318L49.3515 28.7573ZM42.3202 40C42.3202 41.8308 40.8307 43.3203 38.9999 43.3203C37.1691 43.3203 35.6796 41.8308 35.6796 40C35.6796 38.1692 37.1691 36.6797 38.9999 36.6797C39.5607 36.6797 40.0889 36.8198 40.5525 37.0663L38.3095 39.3096C37.928 39.6908 37.928 40.309 38.3095 40.6905C38.4999 40.8812 38.7499 40.9766 38.9999 40.9766C39.2499 40.9766 39.4999 40.8812 39.6904 40.6905L41.9337 38.4474C42.1801 38.911 42.3202 39.4393 42.3202 40ZM41.9721 35.6467C41.1252 35.0668 40.1016 34.7266 38.9999 34.7266C36.0921 34.7266 33.7265 37.0922 33.7265 40C33.7265 42.9078 36.0921 45.2734 38.9999 45.2734C41.9077 45.2734 44.2734 42.9078 44.2734 40C44.2734 38.8983 43.9331 37.8747 43.3533 37.0279L46.1415 34.2396C47.4154 35.8158 48.1796 37.8203 48.1796 40C48.1796 45.0616 44.0615 49.1797 38.9999 49.1797C33.9383 49.1797 29.8202 45.0616 29.8202 40C29.8202 34.9384 33.9383 30.8203 38.9999 30.8203C41.1796 30.8203 43.1841 31.5845 44.7604 32.8584L41.9721 35.6467ZM49.4039 50.404C46.625 53.1831 42.9301 54.7136 38.9999 54.7136C35.0698 54.7136 31.3748 53.1831 28.596 50.404C25.8168 47.6251 24.2864 43.9302 24.2864 40C24.2864 36.0699 25.8168 32.3749 28.596 29.5961C31.3748 26.8169 35.0698 25.2865 38.9999 25.2865C41.571 25.2865 44.0615 25.9469 46.2702 27.2055L45.1688 28.3069C44.9908 28.485 44.8893 28.7235 44.8829 28.9725C44.8822 29.0081 44.8832 29.0437 44.886 29.0795L45.0175 30.6377C43.2813 29.5177 41.2152 28.8672 38.9999 28.8672C32.8613 28.8672 27.8671 33.8614 27.8671 40C27.8671 46.1386 32.8613 51.1328 38.9999 51.1328C45.1385 51.1328 50.1327 46.1386 50.1327 40C50.1327 37.7847 49.4822 35.7186 48.3622 33.9825L49.9204 34.1139C49.9478 34.116 49.9753 34.1172 50.0025 34.1172C50.0071 34.1172 50.0119 34.1167 50.0165 34.1165C50.0295 34.1165 50.0422 34.1155 50.0552 34.1147C50.0763 34.1134 50.0976 34.1122 50.1185 34.1096C50.1315 34.1078 50.1444 34.1058 50.1574 34.1038C50.178 34.1005 50.1983 34.0966 50.2187 34.0921C50.2317 34.089 50.2444 34.0857 50.2571 34.0824C50.2769 34.0771 50.2965 34.071 50.3161 34.0643C50.3288 34.06 50.3413 34.0557 50.3537 34.0509C50.3728 34.0435 50.3916 34.0353 50.4104 34.0264C50.4224 34.0211 50.4343 34.0158 50.4463 34.0097C50.4651 34 50.4834 33.9893 50.5015 33.9786C50.5124 33.972 50.5234 33.9659 50.534 33.9593C50.5534 33.9466 50.5719 33.9329 50.5905 33.9189C50.5991 33.9123 50.608 33.9064 50.6164 33.8995C50.6429 33.8782 50.6686 33.8556 50.693 33.8311L51.7944 32.7297C53.053 34.9384 53.7135 37.4289 53.7135 40C53.7135 43.9302 52.183 47.6251 49.4039 50.404Z" fill="#192126"/>
</svg>
