<svg width="129" height="64" viewBox="0 0 129 64" fill="none" xmlns="http://www.w3.org/2000/svg">
<mask id="mask0_1160_11977" style="mask-type:alpha" maskUnits="userSpaceOnUse" x="0" y="0" width="129" height="64">
<rect width="128" height="64" transform="translate(0.666656)" fill="url(#paint0_linear_1160_11977)"/>
</mask>
<g mask="url(#mask0_1160_11977)">
<path opacity="0.2" d="M128.667 19.6551C127.377 19.538 126.087 19.4758 124.795 19.4758C114.857 19.4758 105.007 23.1546 95.1404 26.8399C88.5331 29.3078 81.9178 31.7786 75.2628 33.1497C58.6696 36.5681 42.324 33.1497 25.7307 21.185C20.4961 17.4106 15.2862 12.7856 10.0853 8.16875C6.94357 5.3798 3.80517 2.5938 0.666656 0V64H128.667V19.6551Z" fill="#D92D20"/>
</g>
<path opacity="0.2" d="M0.666656 31.7356V64H128.667V37.792C124.556 40.1072 120.454 42.3573 116.353 43.9971C105.333 48.4034 94.3133 48.4034 83.2933 43.1159C77.7833 40.4721 72.225 36.5064 66.6667 32.5408C61.1083 28.5751 55.55 24.6094 50.04 21.9657C39.02 16.6781 28 16.6781 16.98 21.9657C13.335 23.7146 9.69004 26.042 6.03808 28.3738C4.24956 29.5158 2.45936 30.6589 0.666656 31.7356Z" fill="#D92D20"/>
<defs>
<linearGradient id="paint0_linear_1160_11977" x1="64" y1="0" x2="64" y2="64" gradientUnits="userSpaceOnUse">
<stop/>
<stop offset="1" stop-opacity="0"/>
</linearGradient>
</defs>
</svg>
