<svg width="129" height="64" viewBox="0 0 129 64" fill="none" xmlns="http://www.w3.org/2000/svg">
<mask id="mask0_1160_10442" style="mask-type:alpha" maskUnits="userSpaceOnUse" x="0" y="0" width="129" height="64">
<rect width="128" height="64" transform="translate(0.333344)" fill="url(#paint0_linear_1160_10442)"/>
</mask>
<g mask="url(#mask0_1160_10442)">
<path opacity="0.2" d="M128.333 64V0L124.182 5.76904C120.031 11.5375 111.73 23.0721 103.429 29.8008C95.1271 36.53 86.8255 38.4526 78.524 32.6848C75.3615 30.4875 72.1989 27.1742 69.0364 23.8608C63.8974 18.4766 58.7584 13.0923 53.6193 12.4971C46.4247 11.6639 39.23 20.2174 32.0354 28.7709C30.9285 30.0869 29.8215 31.403 28.7146 32.6848C20.413 42.298 12.1115 49.9885 3.80991 51.9111C2.65105 52.1795 1.49219 52.3355 0.333344 52.3791V64H128.333Z" fill="#079455"/>
</g>
<path opacity="0.2" d="M128.333 33.7649V64H0.333344V42.5232C3.78256 45.32 7.22592 47.9598 10.6693 49.971C21.6878 56.4068 32.7063 56.4068 43.7248 48.6838C49.234 44.8223 54.7916 39.0302 60.3492 33.238C65.9067 27.4458 71.4643 21.6537 76.9735 17.7922C87.992 10.0693 99.0105 10.0693 110.029 17.7922C113.673 20.3466 117.318 23.7459 120.969 27.1518C123.42 29.4377 125.874 31.7266 128.333 33.7649Z" fill="#079455"/>
<defs>
<linearGradient id="paint0_linear_1160_10442" x1="64" y1="0" x2="64" y2="64" gradientUnits="userSpaceOnUse">
<stop/>
<stop offset="1" stop-opacity="0"/>
</linearGradient>
</defs>
</svg>
